<svg id="Layer_1" data-name="Layer 1" xmlns="http://www.w3.org/2000/svg" xmlns:xlink="http://www.w3.org/1999/xlink" viewBox="0 0 101.76 97.55"><defs><style>.cls-1,.cls-2,.cls-3{stroke:#2c0d3b;stroke-miterlimit:10;}.cls-1{fill:url(#linear-gradient);}.cls-2{fill:#f3d1e4;}.cls-3{fill:none;}.cls-4{opacity:0.24;}.cls-5{fill:url(#linear-gradient-2);}.cls-6{fill:url(#linear-gradient-3);}</style><linearGradient id="linear-gradient" x1="18.41" y1="42.66" x2="61.58" y2="42.66" gradientUnits="userSpaceOnUse"><stop offset="0.37" stop-color="#edacce" stop-opacity="0.9"/><stop offset="0.69" stop-color="#db1b5b" stop-opacity="0.43"/><stop offset="0.97" stop-color="#d91b57" stop-opacity="0.3"/></linearGradient><linearGradient id="linear-gradient-2" x1="2.67" y1="43.59" x2="100.01" y2="43.59" gradientTransform="matrix(1, -0.01, -0.01, 1.02, 1.74, -3.7)" xlink:href="#linear-gradient"/><linearGradient id="linear-gradient-3" x1="-1.17" y1="69.96" x2="71.22" y2="69.96" gradientTransform="matrix(1, -0.01, -0.01, 1.02, 1.74, -3.7)" xlink:href="#linear-gradient"/></defs><title>ballons</title><g id="ballons"><path class="cls-1" d="M39.73,31.88C44.12,28.5,54,23.21,58.9,27.52,63.14,31.23,61.76,39,58.84,43,54.7,48.7,49.23,55.61,43,59.31c-4.2,2.5-4.67.93-8.36-2.36a70.75,70.75,0,0,1-9-9.26,35,35,0,0,1-7.17-15.81c-1.16-7,8.15-7.85,13.39-6.65C35.46,26,38.65,28.42,39.73,31.88Z"/><path class="cls-2" d="M61.59,41.89c3.31-2.74,10.73-7,14.44-3.54,3.19,3,2.16,9.34,0,12.6-3.12,4.61-7.23,10.22-11.91,13.23-3.17,2-3.52.75-6.3-1.92A56.94,56.94,0,0,1,51,54.74a29.59,29.59,0,0,1-5.39-12.85c-.88-5.7,6.14-6.38,10.08-5.4A8,8,0,0,1,61.59,41.89Z"/><polygon class="cls-3" points="39.28 60.54 35.65 65.18 44.74 65.18 39.28 60.54"/><polygon class="cls-3" points="61.58 65.18 57.3 69.13 66.39 69.13 61.58 65.18"/><line class="cls-3" x1="61.58" y1="69.13" x2="61.58" y2="86.96"/><line class="cls-3" x1="40.19" y1="65.18" x2="40.19" y2="85.22"/></g><g id="bckgrd" class="cls-4"><path class="cls-5" d="M71.81,78.59l-60-33A15.51,15.51,0,0,1,5.78,25.1l8.63-17A14.29,14.29,0,0,1,34.05,1.74l60,33a15.52,15.52,0,0,1,6.07,20.47l-8.64,17A14.28,14.28,0,0,1,71.81,78.59Z"/><path class="cls-6" d="M46.66,95.81,7.74,74.38A15.52,15.52,0,0,1,1.67,53.91l4.64-9.14A14.28,14.28,0,0,1,26,38.45L64.87,59.88a15.51,15.51,0,0,1,6.06,20.47L66.3,89.49A14.28,14.28,0,0,1,46.66,95.81Z"/></g></svg>