<svg id="birds" data-name="birds" xmlns="http://www.w3.org/2000/svg" xmlns:xlink="http://www.w3.org/1999/xlink" viewBox="0 0 101.76 97.55"><defs><style>.cls-1{fill:#deaace;}.cls-1,.cls-2,.cls-3{stroke:#2c0d3b;stroke-miterlimit:10;}.cls-2{fill:none;}.cls-3{fill:url(#linear-gradient);}.cls-4{opacity:0.24;}.cls-5{fill:url(#linear-gradient-2);}.cls-6{fill:url(#linear-gradient-3);}</style><linearGradient id="linear-gradient" x1="40.17" y1="29.28" x2="58.32" y2="29.28" gradientUnits="userSpaceOnUse"><stop offset="0.37" stop-color="#edacce" stop-opacity="0.9"/><stop offset="0.69" stop-color="#db1b5b" stop-opacity="0.43"/><stop offset="0.97" stop-color="#d91b57" stop-opacity="0.3"/></linearGradient><linearGradient id="linear-gradient-2" x1="2.67" y1="43.59" x2="100.01" y2="43.59" gradientTransform="matrix(1, -0.01, -0.01, 1.02, 1.74, -3.7)" xlink:href="#linear-gradient"/><linearGradient id="linear-gradient-3" x1="-1.17" y1="69.96" x2="71.22" y2="69.96" gradientTransform="matrix(1, -0.01, -0.01, 1.02, 1.74, -3.7)" xlink:href="#linear-gradient"/></defs><title>birds</title><g id="birds"><path id="cls-1" d="M33.2,30.88c2.5,1.67,6.28-.44,8.9.17-.29,1.1-4.71,7-4.31,7.62,2.51,4.12,3.79,7.22,3.49,12.29A25.64,25.64,0,0,1,30.69,70.39c-5.27,3.79-11.26,3.71-17.43,3.32.51-2.3,2-4.23,3.11-6.26s2.09-4.46,1.44-6.72c-.8-.87-4.08-.68-5.22-1a12.64,12.64,0,0,1-7-5.56.9.9,0,0,1-.17-.52.82.82,0,0,1,.37-.49,12.19,12.19,0,0,1,8.41-2.48,2.5,2.5,0,0,0,1.46-.13,2.07,2.07,0,0,0,.72-.85c1.89-3.54.86-8.73.67-12.56a4.44,4.44,0,0,1,.13-1.59,3.82,3.82,0,0,1,.74-1.2,34.05,34.05,0,0,1,3.8-4C25.75,26.78,29.14,28.16,33.2,30.88Z"/><path id="cls-2" d="M25.73,57.39c-1.52,1.07-2.57,2.67-4.43,3.21a9,9,0,0,1-3.44.12"/><path id="cls-1" d="M56.86,30.88c3.54-.66,7.46.87,10.66-1.08A21.77,21.77,0,0,1,70,28.15c2.47-1.11,5.76.5,7.85,1.84,3,2,4.26,4,4.18,7.76l-.21,10.51A1.5,1.5,0,0,0,82,49.31a1.28,1.28,0,0,0,.7.36,25.45,25.45,0,0,0,5.48.87,9.81,9.81,0,0,1,2.76.34,2.8,2.8,0,0,1,1.92,1.94A3.62,3.62,0,0,1,92,55.57C88.91,60,84.14,60.1,79.39,60.7c1.28-.16,6.2,11.61,6.81,13-7.71.43-17-.87-22.67-6.94a25.68,25.68,0,0,1-6.59-15.63,21.5,21.5,0,0,1,2.27-10.59c1-2,1.4-1.89.09-3.9-1.21-1.84-2.59-3.59-3.88-5.37A7.37,7.37,0,0,1,56.86,30.88Z"/><path class="cls-2" d="M74.73,38.74A2.7,2.7,0,1,1,72,35.93,2.76,2.76,0,0,1,74.73,38.74Z"/><ellipse class="cls-2" cx="26.46" cy="38.05" rx="2.7" ry="2.81"/><path class="cls-2" d="M73.37,57.39a25.46,25.46,0,0,0,6,3.31"/></g><path id="heart" class="cls-3" d="M49.13,24.32c1.85-1.56,6-4,8.06-2,1.79,1.71,1.21,5.29,0,7.14-1.74,2.62-4,5.8-6.65,7.5-1.77,1.16-2,.43-3.52-1.08a33.45,33.45,0,0,1-3.78-4.27,16.88,16.88,0,0,1-3-7.28c-.49-3.24,3.43-3.62,5.63-3.07A4.5,4.5,0,0,1,49.13,24.32Z"/><g id="bckgrd" class="cls-4"><path class="cls-5" d="M71.81,78.59l-60-33A15.51,15.51,0,0,1,5.78,25.1l8.63-17A14.29,14.29,0,0,1,34.05,1.74l60,33a15.52,15.52,0,0,1,6.07,20.47l-8.64,17A14.28,14.28,0,0,1,71.81,78.59Z"/><path class="cls-6" d="M46.66,95.81,7.74,74.38A15.52,15.52,0,0,1,1.67,53.91l4.64-9.14A14.28,14.28,0,0,1,26,38.45L64.87,59.88a15.51,15.51,0,0,1,6.06,20.47L66.3,89.49A14.28,14.28,0,0,1,46.66,95.81Z"/></g></svg>