<svg id="calender" data-name="calender" xmlns="http://www.w3.org/2000/svg" xmlns:xlink="http://www.w3.org/1999/xlink" viewBox="0 0 101.76 97.55"><defs><style>.cls-1{fill:none;}.cls-1,.cls-2,.cls-6{stroke:#2c0d3b;stroke-miterlimit:10;}.cls-2{fill:url(#linear-gradient);}.cls-3{opacity:0.24;}.cls-4{fill:url(#linear-gradient-2);}.cls-5{fill:url(#linear-gradient-3);}.cls-6{fill:url(#linear-gradient-4);}</style><linearGradient id="linear-gradient" x1="22.69" y1="33.78" x2="79.42" y2="33.78" gradientUnits="userSpaceOnUse"><stop offset="0.37" stop-color="#edacce" stop-opacity="0.9"/><stop offset="0.69" stop-color="#db1b5b" stop-opacity="0.43"/><stop offset="0.97" stop-color="#d91b57" stop-opacity="0.3"/></linearGradient><linearGradient id="linear-gradient-2" x1="2.67" y1="43.59" x2="100.01" y2="43.59" gradientTransform="matrix(1, -0.01, -0.01, 1.02, 1.74, -3.7)" xlink:href="#linear-gradient"/><linearGradient id="linear-gradient-3" x1="-1.17" y1="69.96" x2="71.22" y2="69.96" gradientTransform="matrix(1, -0.01, -0.01, 1.02, 1.74, -3.7)" xlink:href="#linear-gradient"/><linearGradient id="linear-gradient-4" x1="37.2" y1="60.3" x2="64.91" y2="60.3" xlink:href="#linear-gradient"/></defs><title>calender</title><g id="calender"><rect class="cls-1" x="22.69" y="28.72" width="56.73" height="52.62"/><rect class="cls-2" x="22.69" y="28.72" width="56.73" height="10.12"/><path id="cls-1" d="M71.53,28.72H63.67c-.7,0-.11-7.47.5-8.12a3.09,3.09,0,0,1,1.59-.8c3.22-.75,5.54,0,5.9,3.3C71.71,23.54,72,28.72,71.53,28.72Z"/><path id="cls-1" d="M37.34,28.72H29.49c-.7,0-.12-7.47.49-8.12a3.09,3.09,0,0,1,1.6-.8c3.21-.75,5.54,0,5.9,3.3C37.52,23.54,37.82,28.72,37.34,28.72Z"/></g><g id="bckgrd" class="cls-3"><path class="cls-4" d="M71.81,78.59l-60-33A15.51,15.51,0,0,1,5.78,25.1l8.63-17A14.29,14.29,0,0,1,34.05,1.74l60,33a15.52,15.52,0,0,1,6.07,20.47l-8.64,17A14.28,14.28,0,0,1,71.81,78.59Z"/><path class="cls-5" d="M46.66,95.81,7.74,74.38A15.52,15.52,0,0,1,1.67,53.91l4.64-9.14A14.28,14.28,0,0,1,26,38.45L64.87,59.88a15.51,15.51,0,0,1,6.06,20.47L66.3,89.49A14.28,14.28,0,0,1,46.66,95.81Z"/></g><path id="heart" class="cls-6" d="M50.88,53.36c2.82-2.18,9.14-5.59,12.31-2.81,2.72,2.38,1.84,7.4,0,10C60.49,64.19,57,68.64,53,71c-2.7,1.62-3,.6-5.37-1.52a46.4,46.4,0,0,1-5.77-6,22.62,22.62,0,0,1-4.6-10.18c-.74-4.53,5.24-5.06,8.6-4.29A6.67,6.67,0,0,1,50.88,53.36Z"/></svg>