<svg id="candles" data-name="candles" xmlns="http://www.w3.org/2000/svg" xmlns:xlink="http://www.w3.org/1999/xlink" viewBox="0 0 101.76 97.55"><defs><style>.cls-1{fill:none;}.cls-1,.cls-2,.cls-3,.cls-7,.cls-8{stroke:#2c0d3b;stroke-miterlimit:10;}.cls-2{fill:url(#linear-gradient);}.cls-3{fill:url(#linear-gradient-2);}.cls-4{opacity:0.24;}.cls-5{fill:url(#linear-gradient-3);}.cls-6{fill:url(#linear-gradient-4);}.cls-7{fill:url(#linear-gradient-5);}.cls-8{fill:url(#linear-gradient-6);}</style><linearGradient id="linear-gradient" x1="35.16" y1="25.25" x2="52.08" y2="25.25" gradientUnits="userSpaceOnUse"><stop offset="0.37" stop-color="#edacce" stop-opacity="0.9"/><stop offset="0.69" stop-color="#db1b5b" stop-opacity="0.43"/><stop offset="0.97" stop-color="#d91b57" stop-opacity="0.3"/></linearGradient><linearGradient id="linear-gradient-2" x1="58.06" y1="45.22" x2="66.09" y2="45.22" xlink:href="#linear-gradient"/><linearGradient id="linear-gradient-3" x1="2.67" y1="43.59" x2="100.02" y2="43.59" gradientTransform="matrix(1, -0.01, -0.01, 1.02, 1.74, -3.7)" xlink:href="#linear-gradient"/><linearGradient id="linear-gradient-4" x1="-1.17" y1="69.96" x2="71.22" y2="69.96" gradientTransform="matrix(1, -0.01, -0.01, 1.02, 1.74, -3.7)" xlink:href="#linear-gradient"/><linearGradient id="linear-gradient-5" x1="43.07" y1="70.04" x2="61.1" y2="70.04" xlink:href="#linear-gradient"/><linearGradient id="linear-gradient-6" x1="26.54" y1="54.31" x2="43.45" y2="54.31" xlink:href="#linear-gradient"/></defs><title>candles</title><g id="candles"><path class="cls-1" d="M54,83.8h-22c0-14.23-.47-28.41-.12-42.64.12-4.59,11.42-2.68,13.84-2.48,1.45.13,6.74-.27,7.83.71C57.67,43.17,51.14,83.8,54,83.8Z"/><path class="cls-2" d="M40,38.7a4.14,4.14,0,0,1-.65-.41C30,31.09,38.63,18.77,43,11.2c3.13,5.15,10.25,13.27,9,19.72-.32,1.67-4,8.26-6,8.27S41.83,39.64,40,38.7Z"/><path class="cls-1" d="M69.58,83.8H54.06C54.06,73.86,53.73,64,54,54c.08-3.2,8.06-1.87,9.76-1.72,1,.09,4.76-.19,5.52.49C72.2,55.42,67.59,83.8,69.58,83.8Z"/><path class="cls-3" d="M60.38,52a2.92,2.92,0,0,1-.32-.21c-4.46-3.64-.36-9.87,1.69-13.69,1.49,2.6,4.87,6.71,4.27,10-.16.84-1.88,4.17-2.88,4.18A5.35,5.35,0,0,1,60.38,52Z"/><path class="cls-1" d="M42.1,39.11a3.11,3.11,0,0,1-.38-.25c-5.4-4.27-.44-11.59,2-16.08,1.8,3,5.89,7.88,5.16,11.71-.19,1-2.27,4.9-3.47,4.9S43.12,39.66,42.1,39.11Z"/></g><g id="bckgrd" class="cls-4"><path class="cls-5" d="M71.81,78.59l-60-33A15.51,15.51,0,0,1,5.78,25.1l8.63-17A14.29,14.29,0,0,1,34.05,1.74l60,33a15.52,15.52,0,0,1,6.07,20.47l-8.64,17A14.28,14.28,0,0,1,71.81,78.59Z"/><path class="cls-6" d="M46.66,95.81,7.74,74.38A15.52,15.52,0,0,1,1.67,53.91l4.64-9.14A14.28,14.28,0,0,1,26,38.45L64.87,59.88a15.51,15.51,0,0,1,6.06,20.47L66.3,89.49A14.28,14.28,0,0,1,46.66,95.81Z"/></g><g id="hearts"><path class="cls-7" d="M52,65.7c1.83-1.36,6-3.49,8-1.76,1.77,1.49,1.19,4.63,0,6.25-1.73,2.28-4,5.07-6.6,6.56-1.76,1-2,.37-3.5-1a30,30,0,0,1-3.75-3.73,13.92,13.92,0,0,1-3-6.37c-.49-2.83,3.4-3.16,5.59-2.68A4.3,4.3,0,0,1,52,65.7Z"/><path class="cls-8" d="M34.9,50.3c1.71-1.26,5.57-3.22,7.5-1.62,1.66,1.38,1.13,4.27,0,5.76-1.62,2.11-3.76,4.68-6.2,6.06-1.64.93-1.83.34-3.27-.88a27.28,27.28,0,0,1-3.52-3.44,12.8,12.8,0,0,1-2.81-5.88c-.45-2.61,3.2-2.92,5.25-2.47A4,4,0,0,1,34.9,50.3Z"/></g></svg>