<svg id="chat" data-name="chat" xmlns="http://www.w3.org/2000/svg" xmlns:xlink="http://www.w3.org/1999/xlink" viewBox="0 0 101.76 97.55"><defs><style>.cls-1{fill:none;}.cls-1,.cls-2{stroke:#2c0d3b;stroke-miterlimit:10;}.cls-2{fill:url(#linear-gradient);}.cls-3{opacity:0.24;}.cls-4{fill:url(#linear-gradient-2);}.cls-5{fill:url(#linear-gradient-3);}</style><linearGradient id="linear-gradient" x1="39.52" y1="40.43" x2="66.35" y2="40.43" gradientUnits="userSpaceOnUse"><stop offset="0.37" stop-color="#edacce" stop-opacity="0.9"/><stop offset="0.69" stop-color="#db1b5b" stop-opacity="0.43"/><stop offset="0.97" stop-color="#d91b57" stop-opacity="0.3"/></linearGradient><linearGradient id="linear-gradient-2" x1="2.67" y1="43.59" x2="100.01" y2="43.59" gradientTransform="matrix(1, -0.01, -0.01, 1.02, 1.74, -3.7)" xlink:href="#linear-gradient"/><linearGradient id="linear-gradient-3" x1="-1.17" y1="69.96" x2="71.22" y2="69.96" gradientTransform="matrix(1, -0.01, -0.01, 1.02, 1.74, -3.7)" xlink:href="#linear-gradient"/></defs><title>chat</title><g id="chat"><path id="cls-1" d="M69.52,52.85a17.82,17.82,0,0,1,1.88-4c4-7,2.88-15.92-1.25-22.62-4.81-7.79-14.26-10.82-22.73-9.6-8.74,1.26-14.67,10-15.87,18.59-1.17,8.36,3,17,9.37,22a18.75,18.75,0,0,0,11.22,4.3c4.49.08,8.39-3.27,12.68-3.08a5.65,5.65,0,0,1,5.08,3.39c.27-1.9-.28-3.81-.55-5.71A7.83,7.83,0,0,1,69.52,52.85Z"/><path id="cls-1" d="M16.07,77.23c.13.21.41-.37,1.27-.63C19.46,76,21,75,23.27,75.73c1.82.56,3.38,1.86,5.22,2.34,10.34,2.69,16.31-13,14.06-21.15A12.39,12.39,0,0,0,39,50.86a11.79,11.79,0,0,0-5.77-2.55,15.76,15.76,0,0,0-14.61,5,14.2,14.2,0,0,0-3.22,9.29c.07,3.24,3.25,7.31,2.08,10.08-.35.84-1.65,2.82-1.57,3.71A2.62,2.62,0,0,0,16.07,77.23Z"/><path id="cls-1" d="M24.36,63.43A1.42,1.42,0,1,1,23,62,1.44,1.44,0,0,1,24.36,63.43Z"/><path id="cls-1" d="M37.48,63a1.41,1.41,0,1,1-1.41-1.48A1.44,1.44,0,0,1,37.48,63Z"/><path id="cls-1" d="M30.92,63a1.42,1.42,0,1,1-1.41-1.48A1.44,1.44,0,0,1,30.92,63Z"/></g><path id="heart" class="cls-2" d="M52.77,33.58c2.73-2.15,8.85-5.51,11.92-2.77,2.63,2.35,1.78,7.31,0,9.85-2.57,3.61-6,8-9.83,10.36-2.62,1.59-2.91.59-5.2-1.5A45.11,45.11,0,0,1,44,43.63a22.59,22.59,0,0,1-4.45-10.05c-.72-4.47,5.07-5,8.33-4.23A6.52,6.52,0,0,1,52.77,33.58Z"/><g id="bckgrd" class="cls-3"><path id="cls-4" d="M71.81,78.59l-60-33A15.51,15.51,0,0,1,5.78,25.1l8.63-17A14.29,14.29,0,0,1,34.05,1.74l60,33a15.52,15.52,0,0,1,6.07,20.47l-8.64,17A14.28,14.28,0,0,1,71.81,78.59Z"/><path id="cls-5" d="M46.66,95.81,7.74,74.38A15.52,15.52,0,0,1,1.67,53.91l4.64-9.14A14.28,14.28,0,0,1,26,38.45L64.87,59.88a15.51,15.51,0,0,1,6.06,20.47L66.3,89.49A14.28,14.28,0,0,1,46.66,95.81Z"/></g></svg>