<svg id="cups" data-name="cups" xmlns="http://www.w3.org/2000/svg" xmlns:xlink="http://www.w3.org/1999/xlink" viewBox="0 0 101.76 97.55"><defs><style>.cls-1{fill:none;}.cls-1,.cls-2,.cls-3,.cls-4{stroke:#2c0d3b;stroke-miterlimit:10;}.cls-2{fill:url(#linear-gradient);}.cls-3{fill:url(#linear-gradient-2);}.cls-4{fill:url(#linear-gradient-3);}.cls-5{opacity:0.24;}.cls-6{fill:url(#linear-gradient-4);}.cls-7{fill:url(#linear-gradient-5);}</style><linearGradient id="linear-gradient" x1="57.85" y1="50.29" x2="77.19" y2="50.29" gradientUnits="userSpaceOnUse"><stop offset="0.37" stop-color="#edacce" stop-opacity="0.9"/><stop offset="0.69" stop-color="#db1b5b" stop-opacity="0.43"/><stop offset="0.97" stop-color="#d91b57" stop-opacity="0.3"/></linearGradient><linearGradient id="linear-gradient-2" x1="25.06" y1="50.29" x2="44.41" y2="50.29" xlink:href="#linear-gradient"/><linearGradient id="linear-gradient-3" x1="34.82" y1="30.4" x2="62.53" y2="30.4" xlink:href="#linear-gradient"/><linearGradient id="linear-gradient-4" x1="2.67" y1="43.59" x2="100.02" y2="43.59" gradientTransform="matrix(1, -0.01, -0.01, 1.02, 1.74, -3.7)" xlink:href="#linear-gradient"/><linearGradient id="linear-gradient-5" x1="-1.17" y1="69.96" x2="71.22" y2="69.96" gradientTransform="matrix(1, -0.01, -0.01, 1.02, 1.74, -3.7)" xlink:href="#linear-gradient"/></defs><title>cups</title><g id="cups"><line class="cls-1" x1="67.23" y1="57.46" x2="67.23" y2="81.13"/><line class="cls-1" x1="57.33" y1="81.23" x2="78.12" y2="81.02"/><path id="cls-1" d="M57.32,37.47c0,4.36.22,8.48.25,9.35a15.62,15.62,0,0,0,1.17,6.5A9,9,0,0,0,67.21,58a11.22,11.22,0,0,0,8.34-3.87c1.88-2.41,2-5.12,2-8.08l.15-11.5c0-2.19.87-6.87-1.54-8.19a5.38,5.38,0,0,0-2.61-.43H58.66C57.49,25.9,57.27,31.88,57.32,37.47Z"/><polyline class="cls-1" points="57.85 42.19 77.19 41.99 62.38 42.14"/><polygon class="cls-2" points="72.06 42.62 77.19 42.62 77.19 49.72 76.19 53.13 72.91 56.34 69.26 57.46 66.77 57.96 62.69 57.06 59.59 54.64 57.85 50.75 57.85 45.38 57.85 42.62 72.06 42.62"/><line class="cls-1" x1="34.44" y1="57.46" x2="34.44" y2="81.13"/><line class="cls-1" x1="24.54" y1="81.23" x2="45.33" y2="81.02"/><path id="cls-1" d="M24.53,37.47c0,4.36.22,8.48.25,9.35A15.62,15.62,0,0,0,26,53.32,9,9,0,0,0,34.42,58a11.22,11.22,0,0,0,8.34-3.87c1.88-2.41,2-5.12,2-8.08L45,34.5c0-2.19.87-6.87-1.54-8.19a5.38,5.38,0,0,0-2.61-.43H25.87C24.7,25.9,24.48,31.88,24.53,37.47Z"/><polyline class="cls-1" points="25.06 42.19 44.41 41.99 29.59 42.14"/><polygon class="cls-3" points="39.28 42.62 44.41 42.62 44.41 49.72 43.41 53.13 40.13 56.34 36.48 57.46 33.98 57.96 29.91 57.06 26.8 54.64 25.06 50.75 25.06 45.38 25.06 42.62 39.28 42.62"/></g><path id="heart" class="cls-4" d="M48.5,23.46c2.82-2.18,9.14-5.58,12.31-2.81,2.72,2.39,1.84,7.4,0,10-2.66,3.66-6.17,8.11-10.15,10.49-2.7,1.62-3,.6-5.38-1.52a46.34,46.34,0,0,1-5.76-6,22.62,22.62,0,0,1-4.6-10.18c-.74-4.53,5.23-5.06,8.6-4.29A6.69,6.69,0,0,1,48.5,23.46Z"/><g id="bckgrd" class="cls-5"><path class="cls-6" d="M71.81,78.59l-60-33A15.51,15.51,0,0,1,5.78,25.1l8.63-17A14.3,14.3,0,0,1,34.05,1.74l60,33a15.52,15.52,0,0,1,6.07,20.47l-8.64,17A14.28,14.28,0,0,1,71.81,78.59Z"/><path class="cls-7" d="M46.66,95.81,7.74,74.38A15.52,15.52,0,0,1,1.67,53.91l4.64-9.14A14.28,14.28,0,0,1,26,38.45L64.87,59.88a15.51,15.51,0,0,1,6.06,20.47L66.3,89.49A14.28,14.28,0,0,1,46.66,95.81Z"/></g></svg>