<svg id="gift" data-name="gift" xmlns="http://www.w3.org/2000/svg" xmlns:xlink="http://www.w3.org/1999/xlink" viewBox="0 0 103.81 101.59"><defs><style>.cls-1{fill:none;}.cls-1,.cls-2,.cls-3{stroke:#2c0d3b;stroke-miterlimit:10;}.cls-2{fill:url(#linear-gradient);}.cls-3{fill:url(#linear-gradient-2);}.cls-4{opacity:0.24;}.cls-5{fill:url(#linear-gradient-3);}.cls-6{fill:url(#linear-gradient-4);}</style><linearGradient id="linear-gradient" x1="16.17" y1="33.1" x2="84.21" y2="33.1" gradientUnits="userSpaceOnUse"><stop offset="0.37" stop-color="#edacce" stop-opacity="0.9"/><stop offset="0.69" stop-color="#db1b5b" stop-opacity="0.43"/><stop offset="0.97" stop-color="#d91b57" stop-opacity="0.3"/></linearGradient><linearGradient id="linear-gradient-2" x1="35.85" y1="60.8" x2="63.56" y2="60.8" xlink:href="#linear-gradient"/><linearGradient id="linear-gradient-3" x1="3.19" y1="46.42" x2="100.97" y2="46.42" gradientTransform="matrix(1.02, -0.03, -0.03, 1.06, 2.88, -6.17)" xlink:href="#linear-gradient"/><linearGradient id="linear-gradient-4" x1="-0.61" y1="72.82" x2="72.19" y2="72.82" gradientTransform="matrix(1.02, -0.03, -0.03, 1.06, 2.88, -6.17)" xlink:href="#linear-gradient"/></defs><title>gift</title><g id="gift"><rect class="cls-1" x="22.02" y="38.55" width="56.13" height="44.67"/><rect class="cls-2" x="16.17" y="27.66" width="68.04" height="10.88" rx="4.31"/><line class="cls-1" x1="41.61" y1="27.66" x2="41.4" y2="38.55"/><line class="cls-1" x1="58.41" y1="27.66" x2="58.21" y2="38.55"/><path id="cls-1" d="M37.37,27.66c-1.67-2.52-5.9-7.79-1.31-9.93a4.79,4.79,0,0,1,3.7,0c4.33,1.62,6.61,6,8.66,9.93"/><path id="cls-1" d="M51.15,26.87c2.46-2.78,4.62-5.81,7.28-8.41A4.22,4.22,0,0,1,61.32,17c6.27.07,4.18,8.14.75,10.65"/><path id="cls-1" d="M45.73,22.37a19.85,19.85,0,0,1-1.61-5.09c-.53-3.67,1.19-7.57,5.33-7,1.91.25,4.82,1.48,5.31,3.65.66,2.85-.47,6.66-1,9.45"/><line class="cls-1" x1="51.76" y1="26.05" x2="50.19" y2="27.66"/></g><path id="heart" class="cls-3" d="M49.54,53.86c2.81-2.17,9.14-5.58,12.3-2.8,2.72,2.38,1.84,7.4,0,10-2.65,3.65-6.16,8.11-10.15,10.49-2.7,1.61-3,.6-5.37-1.52a46.4,46.4,0,0,1-5.77-6,22.69,22.69,0,0,1-4.59-10.19c-.75-4.52,5.23-5,8.59-4.28A6.69,6.69,0,0,1,49.54,53.86Z"/><g id="bckgrd" class="cls-4"><path id="cls-5" d="M72.54,81.19l-60-33A15.51,15.51,0,0,1,6.51,27.7l10-19.64A14.29,14.29,0,0,1,36.1,1.74l60,33a15.51,15.51,0,0,1,6.06,20.47L92.18,74.87A14.28,14.28,0,0,1,72.54,81.19Z"/><path class="cls-6" d="M46.66,99.85,7.74,78.42A15.52,15.52,0,0,1,1.67,58L7.39,46.68A14.28,14.28,0,0,1,27,40.36L66,61.79A15.51,15.51,0,0,1,72,82.26L66.3,93.53A14.28,14.28,0,0,1,46.66,99.85Z"/></g></svg>