<svg id="heart" data-name="heart" xmlns="http://www.w3.org/2000/svg" xmlns:xlink="http://www.w3.org/1999/xlink" viewBox="0 0 101.76 97.55"><defs><style>.cls-1{fill:none;}.cls-1,.cls-2,.cls-3,.cls-4,.cls-5{stroke:#2c0d3b;stroke-miterlimit:10;}.cls-2{fill:url(#linear-gradient);}.cls-3{fill:url(#linear-gradient-2);}.cls-4{fill:url(#linear-gradient-3);}.cls-5{fill:url(#linear-gradient-4);}.cls-6{opacity:0.24;}.cls-7{fill:url(#linear-gradient-5);}.cls-8{fill:url(#linear-gradient-6);}</style><linearGradient id="linear-gradient" x1="22.75" y1="57.35" x2="80.56" y2="57.35" gradientUnits="userSpaceOnUse"><stop offset="0.37" stop-color="#edacce" stop-opacity="0.9"/><stop offset="0.69" stop-color="#db1b5b" stop-opacity="0.43"/><stop offset="0.97" stop-color="#d91b57" stop-opacity="0.3"/></linearGradient><linearGradient id="linear-gradient-2" x1="57.4" y1="45.82" x2="67.66" y2="45.82" xlink:href="#linear-gradient"/><linearGradient id="linear-gradient-3" x1="35.94" y1="45.96" x2="47.53" y2="45.96" xlink:href="#linear-gradient"/><linearGradient id="linear-gradient-4" x1="47.38" y1="46.43" x2="57.68" y2="46.43" xlink:href="#linear-gradient"/><linearGradient id="linear-gradient-5" x1="2.67" y1="43.59" x2="100.01" y2="43.59" gradientTransform="matrix(1, -0.01, -0.01, 1.02, 1.74, -3.7)" xlink:href="#linear-gradient"/><linearGradient id="linear-gradient-6" x1="-1.17" y1="69.96" x2="71.22" y2="69.96" gradientTransform="matrix(1, -0.01, -0.01, 1.02, 1.74, -3.7)" xlink:href="#linear-gradient"/></defs><title>heart</title><g id="heart"><path id="cls-1" d="M51.62,33.7c4-3.26,7.52-6.86,12.82-7.44,3.24-.36,6.48.33,9.67,1a3.28,3.28,0,0,1,1.26.45c3.25,2.31,3.73,7,3.73,10.65,0,5.09.42,8.56-3,12.59-7.2,8.36-16,15-24.46,21.88-1.08.82-20.85-17.37-22.23-18.7-3.71-3.56-6.66-8.13-6.7-13.53-.08-8.78,5.9-18.23,15.59-15.44,1.59.45,3.14,1.2,4.69,1.79Z"/><path id="cls-2" d="M50.93,82.08c1.43,0,2.45-1.07,4.31-2.34,5.56-3.81,11.43-7.59,16.25-12.42,4-4,7.26-8.91,8.47-14.51,1.44-6.61-.09-13.46-.91-20.19.4,3.76,1,7.64.47,11.41-.58,4.33-3.84,7.4-6.66,10.32A118.7,118.7,0,0,1,62.53,64l-7.37,6c-1,.82-2.33,2.4-3.54,2.88C44.76,67.07,37.81,61.44,31,55.61a28.22,28.22,0,0,1-5-5.35c-.55-.81-3.32-4.44-3.26-5.41.33,4.7-.18,10,2.53,13.95A79,79,0,0,0,48.7,81.26,4.51,4.51,0,0,0,50.93,82.08Z"/></g><g id="knot"><path id="cls-3" d="M57.59,43.66a2.77,2.77,0,0,1,.53-.61,36.89,36.89,0,0,1,6.11-4.53,2,2,0,0,1,3.09,1c.79,1.82-.64,3.86-1.54,5.32a2,2,0,0,0-.32.73,1.88,1.88,0,0,0,.17.9c.71,1.9,2,4.09,2,6.33a.77.77,0,0,1-.14.52.71.71,0,0,1-.5.13l-3.26,0a2.82,2.82,0,0,1-1.29-.18,2.88,2.88,0,0,1-.74-.57c-2.85-2.69-4.31-3.8-4.33-8a2.29,2.29,0,0,1,.13-1Z"/><path id="cls-4" d="M47.38,44.22l-3.84-3.58c-1.38-1.28-4.23-3.44-5.87-1.67-.75.8-1.73,1.57-1.73,2.55S37.87,45,38.35,46.1a1.71,1.71,0,0,1,.23.84,1.81,1.81,0,0,1-.29.77c-.6,1.08-2.9,3.24-2.2,4.59a2.44,2.44,0,0,0,1.56,1.11,6.94,6.94,0,0,0,5.39-1c1.67-1,3.82-2.57,4.34-4.46C47.49,47.6,47.65,44.48,47.38,44.22Z"/><path id="cls-5" d="M57.68,46.43a5.15,5.15,0,1,1-5.15-5.36A5.27,5.27,0,0,1,57.68,46.43Z"/></g><g id="bckgrd" id="cls-6"><path id="cls-7" d="M71.81,78.59l-60-33A15.51,15.51,0,0,1,5.78,25.1l8.63-17A14.29,14.29,0,0,1,34.05,1.74l60,33a15.52,15.52,0,0,1,6.07,20.47l-8.64,17A14.28,14.28,0,0,1,71.81,78.59Z"/><path id="cls-8" d="M46.66,95.81,7.74,74.38A15.52,15.52,0,0,1,1.67,53.91l4.64-9.14A14.28,14.28,0,0,1,26,38.45L64.87,59.88a15.51,15.51,0,0,1,6.06,20.47L66.3,89.49A14.28,14.28,0,0,1,46.66,95.81Z"/></g></svg>