<svg id="Layer_1" data-name="Layer 1" xmlns="http://www.w3.org/2000/svg" xmlns:xlink="http://www.w3.org/1999/xlink" viewBox="0 0 101.76 97.55"><defs><style>.cls-1{fill:none;}.cls-1,.cls-2,.cls-3,.cls-4{stroke:#2c0d3b;stroke-miterlimit:10;}.cls-2{fill:url(#linear-gradient);}.cls-3{fill:url(#linear-gradient-2);}.cls-4{fill:url(#linear-gradient-3);}.cls-5{opacity:0.24;}.cls-6{fill:url(#linear-gradient-4);}.cls-7{fill:url(#linear-gradient-5);}</style><linearGradient id="linear-gradient" x1="41.69" y1="44.64" x2="56.33" y2="44.64" gradientUnits="userSpaceOnUse"><stop offset="0.37" stop-color="#edacce" stop-opacity="0.9"/><stop offset="0.69" stop-color="#db1b5b" stop-opacity="0.43"/><stop offset="0.97" stop-color="#d91b57" stop-opacity="0.3"/></linearGradient><linearGradient id="linear-gradient-2" x1="55.34" y1="30.24" x2="69.98" y2="30.24" xlink:href="#linear-gradient"/><linearGradient id="linear-gradient-3" x1="28.43" y1="30.24" x2="43.08" y2="30.24" xlink:href="#linear-gradient"/><linearGradient id="linear-gradient-4" x1="2.66" y1="43.6" x2="100.01" y2="43.6" gradientTransform="matrix(1, -0.01, -0.01, 1.02, 1.74, -3.71)" xlink:href="#linear-gradient"/><linearGradient id="linear-gradient-5" x1="-1.17" y1="69.97" x2="71.21" y2="69.97" gradientTransform="matrix(1, -0.01, -0.01, 1.02, 1.74, -3.71)" xlink:href="#linear-gradient"/></defs><title>icecream</title><path class="cls-1" d="M27.47,58.12a2.19,2.19,0,0,1,1.71-.52l38,.07a2,2,0,0,1,1.1.21c2.22,1.43-.12,6.1-.56,8a76.68,76.68,0,0,0-1.58,9.31c-.31,2.83-.06,5.9-1.21,8.55a2.75,2.75,0,0,1-1,1.32,3.27,3.27,0,0,1-1.72.35l-15.46.22-7.92.11c-2,0-4.29.54-5.57-1.48a9.39,9.39,0,0,1-1-3q-2.43-10.82-4.85-21.61a2.07,2.07,0,0,1,0-1.3A.76.76,0,0,1,27.47,58.12Z"/><line class="cls-1" x1="38.69" y1="57.6" x2="43.08" y2="85.45"/><path class="cls-1" d="M56.4,57.6q-1.07,13.92-2.12,27.85"/><path class="cls-1" d="M27.48,57.88c-4.55-2.56-4.9-10-1.39-13.81.78-.84,2-1.09,2.94-1.66,2.62-1.51,3.18-5.57,4.11-8.29"/><path class="cls-1" d="M43.07,26.9l12.31,0"/><path class="cls-1" d="M65,35.58a20.3,20.3,0,0,0,1,4.11,6.68,6.68,0,0,0,2.51,3.24c.9.56,2,.79,2.86,1.3,3.18,1.8,3.4,6,1.82,9.07a13.94,13.94,0,0,1-4.09,4.58"/><path class="cls-2" d="M48.92,40.7c1.49-1.24,4.83-3.17,6.5-1.6,1.44,1.36,1,4.2,0,5.67-1.4,2.07-3.25,4.6-5.36,5.95-1.43.92-1.59.35-2.84-.86a25,25,0,0,1-3-3.38,13.24,13.24,0,0,1-2.43-5.79c-.4-2.56,2.76-2.87,4.54-2.43A3.61,3.61,0,0,1,48.92,40.7Z"/><path class="cls-3" d="M62.57,26.3c1.49-1.23,4.83-3.16,6.5-1.59,1.44,1.36,1,4.2,0,5.67-1.4,2.07-3.26,4.6-5.36,5.95-1.43.92-1.59.34-2.84-.86a25.8,25.8,0,0,1-3.05-3.38,13.48,13.48,0,0,1-2.43-5.79c-.39-2.56,2.77-2.87,4.55-2.43A3.62,3.62,0,0,1,62.57,26.3Z"/><path class="cls-4" d="M35.67,26.3c1.48-1.23,4.82-3.16,6.5-1.59,1.43,1.36,1,4.2,0,5.67-1.41,2.07-3.26,4.6-5.37,5.95-1.43.92-1.58.34-2.84-.86a25.72,25.72,0,0,1-3-3.38,13.24,13.24,0,0,1-2.43-5.79c-.4-2.56,2.76-2.87,4.54-2.43A3.65,3.65,0,0,1,35.67,26.3Z"/><g class="cls-5"><path class="cls-6" d="M71.81,78.59l-60-33A15.51,15.51,0,0,1,5.78,25.1l8.63-17A14.29,14.29,0,0,1,34.05,1.74l60,33a15.52,15.52,0,0,1,6.07,20.47l-8.64,17A14.28,14.28,0,0,1,71.81,78.59Z"/><path class="cls-7" d="M46.66,95.81,7.74,74.38A15.52,15.52,0,0,1,1.67,53.91l4.64-9.14A14.28,14.28,0,0,1,26,38.45L64.87,59.88a15.51,15.51,0,0,1,6.06,20.47L66.3,89.49A14.28,14.28,0,0,1,46.66,95.81Z"/></g></svg>