<svg id="letter" data-name="letter" xmlns="http://www.w3.org/2000/svg" xmlns:xlink="http://www.w3.org/1999/xlink" viewBox="0 0 101.76 97.55"><defs><style>.cls-1{fill:none;}.cls-1,.cls-2{stroke:#2c0d3b;stroke-miterlimit:10;}.cls-2{fill:url(#linear-gradient);}.cls-3{opacity:0.24;}.cls-4{fill:url(#linear-gradient-2);}.cls-5{fill:url(#linear-gradient-3);}</style><linearGradient id="linear-gradient" x1="37.94" y1="41.31" x2="61.61" y2="41.31" gradientUnits="userSpaceOnUse"><stop offset="0.37" stop-color="#edacce" stop-opacity="0.9"/><stop offset="0.69" stop-color="#db1b5b" stop-opacity="0.43"/><stop offset="0.97" stop-color="#d91b57" stop-opacity="0.3"/></linearGradient><linearGradient id="linear-gradient-2" x1="2.67" y1="43.59" x2="100.02" y2="43.59" gradientTransform="matrix(1, -0.01, -0.01, 1.02, 1.74, -3.7)" xlink:href="#linear-gradient"/><linearGradient id="linear-gradient-3" x1="-1.17" y1="69.96" x2="71.22" y2="69.96" gradientTransform="matrix(1, -0.01, -0.01, 1.02, 1.74, -3.7)" xlink:href="#linear-gradient"/></defs><title>letter</title><g id="letter"><rect class="cls-1" x="19.59" y="35.68" width="61.17" height="41.35"/><rect class="cls-1" x="27.76" y="23.37" width="44.52" height="38.51"/><line id="cls-1" x1="19.59" y1="35.68" x2="65.01" y2="77.03"/><line id="cls-1" x1="78.94" y1="35.68" x2="50.02" y2="61.88"/></g><path id="heart" class="cls-2" d="M49.63,35.24c2.41-1.9,7.81-4.88,10.51-2.45,2.32,2.08,1.57,6.46,0,8.72-2.27,3.2-5.27,7.09-8.68,9.17-2.3,1.41-2.56.53-4.58-1.33a39.18,39.18,0,0,1-4.93-5.21A20,20,0,0,1,38,35.24c-.64-4,4.47-4.42,7.35-3.75A5.76,5.76,0,0,1,49.63,35.24Z"/><g id="bckgrd" class="cls-3"><path class="cls-4" d="M71.81,78.59l-60-33A15.51,15.51,0,0,1,5.78,25.1l8.63-17A14.29,14.29,0,0,1,34.05,1.74l60,33a15.52,15.52,0,0,1,6.07,20.47l-8.64,17A14.28,14.28,0,0,1,71.81,78.59Z"/><path class="cls-5" d="M46.66,95.81,7.74,74.38A15.52,15.52,0,0,1,1.67,53.91l4.64-9.14A14.28,14.28,0,0,1,26,38.45L64.87,59.88a15.51,15.51,0,0,1,6.06,20.47L66.3,89.49A14.28,14.28,0,0,1,46.66,95.81Z"/></g></svg>