<svg id="Layer_1" data-name="Layer 1" xmlns="http://www.w3.org/2000/svg" xmlns:xlink="http://www.w3.org/1999/xlink" viewBox="0 0 101.82 97.68"><defs><style>.cls-1,.cls-2,.cls-3{stroke:#2c0d3b;stroke-miterlimit:10;}.cls-1{fill:url(#linear-gradient);}.cls-2{fill:url(#linear-gradient-2);}.cls-3{fill:none;}.cls-4{opacity:0.24;}.cls-5{fill:url(#linear-gradient-3);}.cls-6{fill:url(#linear-gradient-4);}</style><linearGradient id="linear-gradient" x1="50.92" y1="40.42" x2="81.24" y2="40.42" gradientUnits="userSpaceOnUse"><stop offset="0.37" stop-color="#edacce" stop-opacity="0.9"/><stop offset="0.69" stop-color="#db1b5b" stop-opacity="0.43"/><stop offset="0.97" stop-color="#d91b57" stop-opacity="0.3"/></linearGradient><linearGradient id="linear-gradient-2" x1="6.47" y1="70.64" x2="24.63" y2="70.64" xlink:href="#linear-gradient"/><linearGradient id="linear-gradient-3" x1="3.53" y1="45.13" x2="100.88" y2="45.13" gradientTransform="matrix(1, 0, -0.01, 1.02, 1.19, -5.37)" xlink:href="#linear-gradient"/><linearGradient id="linear-gradient-4" x1="-0.3" y1="71.5" x2="72.08" y2="71.5" gradientTransform="matrix(1, 0, -0.01, 1.02, 1.19, -5.37)" xlink:href="#linear-gradient"/></defs><title>lips</title><g id="hearts"><path class="cls-1" d="M65.89,33.38c3.08-2.21,10-5.66,13.46-2.85,3,2.42,2,7.51,0,10.12-2.91,3.71-6.75,8.22-11.11,10.64-3,1.63-3.28.61-5.87-1.54a48.24,48.24,0,0,1-6.31-6,22.09,22.09,0,0,1-5-10.32c-.82-4.59,5.72-5.13,9.4-4.35A7.2,7.2,0,0,1,65.89,33.38Z"/><path class="cls-2" d="M15.44,65.67c1.84-1.55,6-4,8.06-2,1.78,1.7,1.2,5.29,0,7.14-1.74,2.61-4,5.79-6.65,7.5-1.77,1.15-2,.43-3.52-1.09A31.9,31.9,0,0,1,9.53,73a16.91,16.91,0,0,1-3-7.29c-.49-3.23,3.42-3.61,5.63-3.06A4.52,4.52,0,0,1,15.44,65.67Z"/></g><g id="lips"><path class="cls-3" d="M24.63,56.91C25.8,55,27.82,53.65,29.27,52s3.7-3.46,6-3c2,.36,3.48,2.69,5.41,2.84s4-2.29,6-2.74c4-.9,6.4,3.07,8.91,5.69.48.74,1.51,1.79,1.2,2.59-.42,1.08-3.64,2.57-4.61,3.17a18.54,18.54,0,0,1-16.36,2.1C32.26,61.42,27.44,59.53,24.63,56.91Z"/><path class="cls-3" d="M37.39,36.6a6.18,6.18,0,0,0,2.9.64,10.3,10.3,0,0,0,5.15-1.38c1.35-.78,2.79-2.67,4.48-2.42A3.9,3.9,0,0,1,52,34.79c5.16,5.2,10.33,10.39,15.4,15.68,2.49,2.53,6.73,4.21,4.6,8.39a44.25,44.25,0,0,1-8.91,11.41c-3.66,3.57-7.31,6.47-12.3,7.64a49.89,49.89,0,0,1-11.25,1c-3.7,0-7.58,0-11-1.55s-5.84-5.23-8.52-8c-2.13-2.19-4.34-4.3-6.51-6.44-1.67-1.65-5.13-4-3.08-6.7l2.32-3,4.63-6.08,5.81-7.61c2.06-2.71,4.22-6,7.75-6.57a4.67,4.67,0,0,1,4,1.09c.61.6,1,1.39,1.65,2A4,4,0,0,0,37.39,36.6Z"/></g><g id="bckgrd" class="cls-4"><path class="cls-5" d="M71.72,78.8,11.91,45.5a15.52,15.52,0,0,1-6-20.5L14.66,8A14.28,14.28,0,0,1,34.33,1.78L94.14,35.07a15.52,15.52,0,0,1,6,20.5l-8.71,17A14.3,14.3,0,0,1,71.72,78.8Z"/><path class="cls-6" d="M46.5,95.9,7.67,74.29a15.52,15.52,0,0,1-6-20.5l4.67-9.12a14.29,14.29,0,0,1,19.67-6.23L64.88,60.06a15.52,15.52,0,0,1,6,20.5l-4.67,9.11A14.29,14.29,0,0,1,46.5,95.9Z"/></g></svg>