<svg id="Layer_1" data-name="Layer 1" xmlns="http://www.w3.org/2000/svg" xmlns:xlink="http://www.w3.org/1999/xlink" viewBox="0 0 101.76 97.55"><defs><style>.cls-1,.cls-2,.cls-3{stroke:#2c0d3b;stroke-miterlimit:10;}.cls-1{fill:url(#linear-gradient);}.cls-2{fill:url(#linear-gradient-2);}.cls-3{fill:none;}.cls-4{opacity:0.24;}.cls-5{fill:url(#linear-gradient-3);}.cls-6{fill:url(#linear-gradient-4);}</style><linearGradient id="linear-gradient" x1="51.95" y1="55.31" x2="73.57" y2="55.31" gradientUnits="userSpaceOnUse"><stop offset="0.37" stop-color="#edacce" stop-opacity="0.9"/><stop offset="0.69" stop-color="#db1b5b" stop-opacity="0.43"/><stop offset="0.97" stop-color="#d91b57" stop-opacity="0.3"/></linearGradient><linearGradient id="linear-gradient-2" x1="47.31" y1="42.24" x2="61.95" y2="42.24" xlink:href="#linear-gradient"/><linearGradient id="linear-gradient-3" x1="2.66" y1="43.6" x2="100.01" y2="43.6" gradientTransform="matrix(1, -0.01, -0.01, 1.02, 1.74, -3.71)" xlink:href="#linear-gradient"/><linearGradient id="linear-gradient-4" x1="-1.17" y1="69.97" x2="71.21" y2="69.97" gradientTransform="matrix(1, -0.01, -0.01, 1.02, 1.74, -3.71)" xlink:href="#linear-gradient"/></defs><title>moon</title><g id="hearts"><path class="cls-1" d="M62.63,49.38c2.19-1.85,7.13-4.76,9.59-2.39,2.13,2,1.44,6.32,0,8.52-2.07,3.12-4.81,6.92-7.92,9-2.1,1.38-2.34.51-4.19-1.3a38.21,38.21,0,0,1-4.49-5.09A20.17,20.17,0,0,1,52,49.38c-.58-3.86,4.08-4.31,6.71-3.65A5.36,5.36,0,0,1,62.63,49.38Z"/><path class="cls-2" d="M54.54,38.3c1.49-1.24,4.83-3.17,6.5-1.6,1.44,1.36,1,4.2,0,5.67-1.4,2.08-3.26,4.6-5.36,6-1.43.91-1.59.34-2.84-.87a25.8,25.8,0,0,1-3-3.38,13.49,13.49,0,0,1-2.43-5.78c-.39-2.57,2.77-2.87,4.55-2.44A3.63,3.63,0,0,1,54.54,38.3Z"/></g><path id="moon" class="cls-3" d="M42.35,21c.76,1.38-1.78,4.8-2.3,5.83-1.56,3.07-3.36,6.23-3.54,9.76a41.42,41.42,0,0,0,6.26,23.21,28.49,28.49,0,0,0,8.17,8.85c4.16,2.77,9,3.18,13.74,4.33-.7,2.86-3.51,4.55-6.18,5.56-14.23,5.36-32.46-.63-38-16.35-5.63-16,1.86-39,19.84-41.71a2.5,2.5,0,0,1,1.6.14A.9.9,0,0,1,42.35,21Z"/><g id="bckgrd" class="cls-4"><path class="cls-5" d="M71.81,78.59l-60-33A15.51,15.51,0,0,1,5.78,25.1l8.63-17A14.29,14.29,0,0,1,34.05,1.74l60,33a15.52,15.52,0,0,1,6.07,20.47l-8.64,17A14.28,14.28,0,0,1,71.81,78.59Z"/><path class="cls-6" d="M46.66,95.81,7.74,74.38A15.52,15.52,0,0,1,1.67,53.91l4.64-9.14A14.28,14.28,0,0,1,26,38.45L64.87,59.88a15.51,15.51,0,0,1,6.06,20.47L66.3,89.49A14.28,14.28,0,0,1,46.66,95.81Z"/></g></svg>