<svg id="ring" data-name="ring" xmlns="http://www.w3.org/2000/svg" xmlns:xlink="http://www.w3.org/1999/xlink" viewBox="0 0 101.76 97.55"><defs><style>.cls-1{fill:none;}.cls-1,.cls-2,.cls-3,.cls-4{stroke:#2c0d3b;stroke-miterlimit:10;}.cls-2{fill:url(#linear-gradient);}.cls-3{fill:url(#linear-gradient-2);}.cls-4{fill:url(#linear-gradient-3);}.cls-5{opacity:0.24;}.cls-6{fill:url(#linear-gradient-4);}.cls-7{fill:url(#linear-gradient-5);}</style><linearGradient id="linear-gradient" x1="26.02" y1="31.07" x2="62.62" y2="31.07" gradientUnits="userSpaceOnUse"><stop offset="0.37" stop-color="#edacce" stop-opacity="0.9"/><stop offset="0.69" stop-color="#db1b5b" stop-opacity="0.43"/><stop offset="0.97" stop-color="#d91b57" stop-opacity="0.3"/></linearGradient><linearGradient id="linear-gradient-2" x1="37.76" y1="30.68" x2="50.88" y2="30.68" xlink:href="#linear-gradient"/><linearGradient id="linear-gradient-3" x1="26.02" y1="26.64" x2="61.22" y2="26.64" xlink:href="#linear-gradient"/><linearGradient id="linear-gradient-4" x1="2.67" y1="43.59" x2="100.01" y2="43.59" gradientTransform="matrix(1, -0.01, -0.01, 1.02, 1.74, -3.7)" xlink:href="#linear-gradient"/><linearGradient id="linear-gradient-5" x1="-1.17" y1="69.96" x2="71.22" y2="69.96" gradientTransform="matrix(1, -0.01, -0.01, 1.02, 1.74, -3.7)" xlink:href="#linear-gradient"/></defs><title>ring</title><g id="ring"><ellipse class="cls-1" cx="44.59" cy="62.53" rx="15.95" ry="17.21"/><ellipse class="cls-1" cx="45.1" cy="62.38" rx="25.54" ry="26.62"/><polygon class="cls-2" points="33.49 16.82 55.9 16.82 62.62 25.45 44.59 45.31 26.02 26.29 33.49 16.82"/><path id="cls-3" d="M47,17.37a2.66,2.66,0,0,1-.93.17,2.37,2.37,0,0,1-1.72-.68l-.1,0a2.79,2.79,0,0,1-.6.09H43.6a2.56,2.56,0,0,1-1,.22,2.65,2.65,0,0,1-1-.2,2.23,2.23,0,0,1-.93.58l-2.92,8,7.06,19,6.06-20.15Z"/><line id="cls-4" x1="61.22" y1="26.99" x2="26.02" y2="26.29"/></g><g id="bckgrd" id="cls-5"><path id="cls-6" d="M71.81,78.59l-60-33A15.51,15.51,0,0,1,5.78,25.1l8.63-17A14.29,14.29,0,0,1,34.05,1.74l60,33a15.52,15.52,0,0,1,6.07,20.47l-8.64,17A14.28,14.28,0,0,1,71.81,78.59Z"/><path id="cls-7" d="M46.66,95.81,7.74,74.38A15.52,15.52,0,0,1,1.67,53.91l4.64-9.14A14.28,14.28,0,0,1,26,38.45L64.87,59.88a15.51,15.51,0,0,1,6.06,20.47L66.3,89.49A14.28,14.28,0,0,1,46.66,95.81Z"/></g></svg>