<svg id="teddy_bear" data-name="teddy_bear" xmlns="http://www.w3.org/2000/svg" xmlns:xlink="http://www.w3.org/1999/xlink" viewBox="0 0 102.27 98.57"><defs><style>.cls-1{fill:none;}.cls-1,.cls-2{stroke:#2c0d3b;stroke-miterlimit:10;}.cls-2{fill:url(#linear-gradient);}.cls-3{opacity:0.24;}.cls-4{fill:url(#linear-gradient-2);}.cls-5{fill:url(#linear-gradient-3);}</style><linearGradient id="linear-gradient" x1="34.07" y1="66.28" x2="53.9" y2="66.28" gradientUnits="userSpaceOnUse"><stop offset="0.37" stop-color="#edacce" stop-opacity="0.9"/><stop offset="0.69" stop-color="#db1b5b" stop-opacity="0.43"/><stop offset="0.97" stop-color="#d91b57" stop-opacity="0.3"/></linearGradient><linearGradient id="linear-gradient-2" x1="1.96" y1="44.08" x2="99.42" y2="44.08" gradientTransform="matrix(1.01, -0.02, -0.02, 1.03, 2.85, -4.08)" xlink:href="#linear-gradient"/><linearGradient id="linear-gradient-3" x1="-1.86" y1="70.46" x2="70.63" y2="70.46" gradientTransform="matrix(1.01, -0.02, -0.02, 1.03, 2.85, -4.08)" xlink:href="#linear-gradient"/></defs><title>teddy bar</title><g id="teddy_bear" data-name="teddy bear"><path id="cls-1" d="M51.3,18.93a8.71,8.71,0,0,0,3.09-1.11c1.16-.71,2.22-1.7,3.55-2a7.25,7.25,0,0,1,5.49,1.8,5,5,0,0,1,1.06,1.51A8.88,8.88,0,0,1,64,27.83c-1,1.58-2.71,2.52-3.25,4.41a8.29,8.29,0,0,0-.22,2c-.16,5.66.35,11.27-4.18,15.35-6.13,5.51-16.7,6.11-23.19,1a15.21,15.21,0,0,1-3.51-4A17.94,17.94,0,0,1,27,37.18c0-2.46.85-4.85-1.06-6.74-.62-.62-2.36-1.42-2.7-2.25-2.2-5.46.87-13.86,7.54-11.88,2.88.85,3.64,1.1,5.38,3.9a18.26,18.26,0,0,1,7.57-1.28C46.24,18.93,48.85,19.35,51.3,18.93Z"/><path class="cls-1" d="M55,77.81c-7.41,4.47-13.36,5-20.59,0"/><path class="cls-1" d="M26.3,66.28a87.41,87.41,0,0,0-.06-9.16,15,15,0,0,0-3.42,0c-2.72,0-3-4.05-2.91-6.21.12-2.63,1.46-4.82,4-5.36a12.53,12.53,0,0,1,5,.35"/><path class="cls-1" d="M60.22,44.39l5.47.7c2,.24,3,3.36,3.29,5.11.83,4.26-2.3,5.89-5.64,6.95a1.55,1.55,0,0,0-1,.63,1.61,1.61,0,0,0-.12.82q.11,3.84.19,7.68"/><path class="cls-1" d="M48.51,41.45a3.42,3.42,0,0,1-3.63,3.15,3.42,3.42,0,0,1-3.64-3.15,3.67,3.67,0,0,1,7.27,0Z"/><path class="cls-1" d="M53.56,32.4c0,.93-1.13,1.68-2.53,1.68s-2.52-.75-2.52-1.68,1.13-1.68,2.52-1.68S53.56,31.47,53.56,32.4Z"/><path class="cls-1" d="M39.42,32.4c0,.93-1.13,1.68-2.52,1.68s-2.52-.75-2.52-1.68,1.13-1.68,2.52-1.68S39.42,31.47,39.42,32.4Z"/><ellipse class="cls-1" cx="26.65" cy="75.75" rx="7.72" ry="9.47"/><ellipse class="cls-1" cx="62.69" cy="75.75" rx="7.72" ry="9.47"/><path class="cls-1" d="M29,27.8a8.08,8.08,0,0,1,.05-3.36,2.6,2.6,0,0,1,3.11-1.93"/><path class="cls-1" d="M56.38,22.51a5.54,5.54,0,0,1,2.31,1.71,5,5,0,0,1,.21,3.51"/><line class="cls-1" x1="44.88" y1="44.6" x2="44.88" y2="53.97"/></g><path id="heart" class="cls-2" d="M43.86,61.1c2-1.62,6.54-4.16,8.81-2.09,1.94,1.78,1.31,5.52,0,7.44-1.9,2.73-4.41,6-7.27,7.82-1.93,1.2-2.15.45-3.84-1.13a34.14,34.14,0,0,1-4.13-4.45,17.23,17.23,0,0,1-3.29-7.59c-.53-3.37,3.75-3.77,6.15-3.19A4.84,4.84,0,0,1,43.86,61.1Z"/><g id="bckgrd" class="cls-3"><path class="cls-4" d="M72,79.24l-60-33A15.52,15.52,0,0,1,6,25.75l9-17.69A14.29,14.29,0,0,1,34.57,1.74l60,33a15.52,15.52,0,0,1,6.06,20.47l-9,17.69A14.28,14.28,0,0,1,72,79.24Z"/><path class="cls-5" d="M46.66,96.83,7.74,75.39A15.52,15.52,0,0,1,1.67,54.92l4.91-9.67a14.28,14.28,0,0,1,19.64-6.32L65.14,60.36a15.52,15.52,0,0,1,6.07,20.47L66.3,90.51A14.29,14.29,0,0,1,46.66,96.83Z"/></g></svg>