<svg id="wine" data-name="wine" xmlns="http://www.w3.org/2000/svg" xmlns:xlink="http://www.w3.org/1999/xlink" viewBox="0 0 101.76 97.55"><defs><style>.cls-1{fill:none;}.cls-1,.cls-2{stroke:#2c0d3b;}.cls-1,.cls-2,.cls-3{stroke-miterlimit:10;}.cls-2{fill:url(#linear-gradient);}.cls-3{stroke:#592875;fill:url(#linear-gradient-2);}.cls-4{opacity:0.24;}.cls-5{fill:url(#linear-gradient-3);}.cls-6{fill:url(#linear-gradient-4);}</style><linearGradient id="linear-gradient" x1="29.2" y1="59.34" x2="54.23" y2="59.34" gradientUnits="userSpaceOnUse"><stop offset="0.37" stop-color="#edacce" stop-opacity="0.9"/><stop offset="0.69" stop-color="#db1b5b" stop-opacity="0.43"/><stop offset="0.97" stop-color="#d91b57" stop-opacity="0.3"/></linearGradient><linearGradient id="linear-gradient-2" x1="51.28" y1="38.4" x2="80.08" y2="38.4" xlink:href="#linear-gradient"/><linearGradient id="linear-gradient-3" x1="2.67" y1="43.59" x2="100.02" y2="43.59" gradientTransform="matrix(1, -0.01, -0.01, 1.02, 1.74, -3.7)" xlink:href="#linear-gradient"/><linearGradient id="linear-gradient-4" x1="-1.17" y1="69.96" x2="71.22" y2="69.96" gradientTransform="matrix(1, -0.01, -0.01, 1.02, 1.74, -3.7)" xlink:href="#linear-gradient"/></defs><title>wine</title><g id="glass"><polygon class="cls-1" points="17.49 34.72 63.32 34.72 66.75 34.72 42.12 67.54 15.67 34.72 17.49 34.72"/><line class="cls-1" x1="42.12" y1="67.54" x2="42.12" y2="88.38"/><polygon class="cls-2" points="29.2 51.13 54.23 51.13 42.72 67.54 29.2 51.13"/><line class="cls-1" x1="31.22" y1="88.38" x2="51.81" y2="88.38"/></g><path id="heart" class="cls-3" d="M65.5,30.73c2.93-2.4,9.5-6.17,12.79-3.1,2.82,2.64,1.91,8.18,0,11-2.76,4-6.41,9-10.55,11.59-2.81,1.79-3.12.67-5.59-1.68a49.89,49.89,0,0,1-6-6.58,25.86,25.86,0,0,1-4.78-11.26c-.77-5,5.44-5.59,8.94-4.73A7.06,7.06,0,0,1,65.5,30.73Z"/><g id="bckgrd" class="cls-4"><path id="cls-5" d="M71.81,78.59l-60-33A15.51,15.51,0,0,1,5.78,25.1l8.63-17A14.29,14.29,0,0,1,34.05,1.74l60,33a15.52,15.52,0,0,1,6.07,20.47l-8.64,17A14.28,14.28,0,0,1,71.81,78.59Z"/><path id="cls-6" d="M46.66,95.81,7.74,74.38A15.52,15.52,0,0,1,1.67,53.91l4.64-9.14A14.28,14.28,0,0,1,26,38.45L64.87,59.88a15.51,15.51,0,0,1,6.06,20.47L66.3,89.49A14.28,14.28,0,0,1,46.66,95.81Z"/></g></svg>